<?xml version="1.0" encoding="UTF-8" standalone="no"?>
<!-- Created with Inkscape (http://www.inkscape.org/) -->

<svg
   width="16"
   height="16"
   viewBox="0 0 4.2333332 4.2333333"
   version="1.1"
   id="svg1"
   inkscape:version="1.4.2 (ebf0e940d0, 2025-05-08)"
   sodipodi:docname="icon.svg"
   inkscape:export-filename="addons/Ds_levels/icon.png"
   inkscape:export-xdpi="768"
   inkscape:export-ydpi="768"
   xmlns:inkscape="http://www.inkscape.org/namespaces/inkscape"
   xmlns:sodipodi="http://sodipodi.sourceforge.net/DTD/sodipodi-0.dtd"
   xmlns="http://www.w3.org/2000/svg"
   xmlns:svg="http://www.w3.org/2000/svg">
  <sodipodi:namedview
     id="namedview1"
     pagecolor="#505050"
     bordercolor="#eeeeee"
     borderopacity="1"
     inkscape:showpageshadow="0"
     inkscape:pageopacity="0"
     inkscape:pagecheckerboard="0"
     inkscape:deskcolor="#505050"
     inkscape:document-units="mm"
     showgrid="true"
     inkscape:zoom="35.082641"
     inkscape:cx="6.6272093"
     inkscape:cy="10.974088"
     inkscape:window-width="1707"
     inkscape:window-height="902"
     inkscape:window-x="0"
     inkscape:window-y="0"
     inkscape:window-maximized="1"
     inkscape:current-layer="layer1">
    <inkscape:grid
       id="grid1"
       units="px"
       originx="0"
       originy="0"
       spacingx="0.26458333"
       spacingy="0.26458333"
       empcolor="#0099e5"
       empopacity="0.30196078"
       color="#0099e5"
       opacity="0.14901961"
       empspacing="5"
       enabled="true"
       visible="true" />
  </sodipodi:namedview>
  <defs
     id="defs1">
    <inkscape:path-effect
       effect="fillet_chamfer"
       id="path-effect26"
       is_visible="true"
       lpeversion="1"
       nodesatellites_param="F,0,0,1,0,0.13229166,0,1 @ F,0,0,1,0,0.13229166,0,1 @ F,0,0,1,0,0.13229166,0,1 @ F,0,0,1,0,0.13229166,0,1 @ F,0,0,1,0,0.13229166,0,1 @ F,0,0,1,0,0.13229166,0,1"
       radius="0.5"
       unit="px"
       method="auto"
       mode="F"
       chamfer_steps="1"
       flexible="false"
       use_knot_distance="true"
       apply_no_radius="true"
       apply_with_radius="true"
       only_selected="false"
       hide_knots="false" />
    <inkscape:path-effect
       effect="fillet_chamfer"
       id="path-effect25"
       is_visible="true"
       lpeversion="1"
       nodesatellites_param="F,0,0,1,0,0.049999998,0,1 @ F,0,0,1,0,0.049999998,0,1 @ F,0,0,1,0,0.049999998,0,1 @ F,0,0,1,0,0.049999998,0,1"
       radius="0.03"
       unit="mm"
       method="auto"
       mode="F"
       chamfer_steps="1"
       flexible="false"
       use_knot_distance="true"
       apply_no_radius="true"
       apply_with_radius="true"
       only_selected="false"
       hide_knots="false" />
    <inkscape:path-effect
       effect="fillet_chamfer"
       id="path-effect24"
       is_visible="true"
       lpeversion="1"
       nodesatellites_param="F,0,0,1,0,0.049999998,0,2 @ F,0,0,1,0,0.049999998,0,2 @ F,0,0,1,0,0.049999998,0,2 @ F,0,0,1,0,0.049999998,0,2"
       radius="0.05"
       unit="mm"
       method="auto"
       mode="F"
       chamfer_steps="2"
       flexible="false"
       use_knot_distance="true"
       apply_no_radius="true"
       apply_with_radius="true"
       only_selected="false"
       hide_knots="false" />
    <inkscape:path-effect
       effect="fillet_chamfer"
       id="path-effect22"
       is_visible="true"
       lpeversion="1"
       nodesatellites_param="F,0,0,1,0,0.049999998,0,2 @ F,0,0,1,0,0.049999998,0,2 @ F,0,0,1,0,0.049999998,0,2 @ F,0,0,1,0,0.049999998,0,2"
       radius="0.05"
       unit="mm"
       method="auto"
       mode="F"
       chamfer_steps="2"
       flexible="false"
       use_knot_distance="true"
       apply_no_radius="true"
       apply_with_radius="true"
       only_selected="false"
       hide_knots="false" />
    <inkscape:path-effect
       effect="fillet_chamfer"
       id="path-effect20"
       is_visible="true"
       lpeversion="1"
       nodesatellites_param="F,0,0,1,0,0.049999998,0,2 @ F,0,0,1,0,0.049999998,0,2 @ F,0,0,1,0,0.049999998,0,2 @ F,0,0,1,0,0.049999998,0,2"
       radius="0.05"
       unit="mm"
       method="auto"
       mode="F"
       chamfer_steps="2"
       flexible="false"
       use_knot_distance="true"
       apply_no_radius="true"
       apply_with_radius="true"
       only_selected="false"
       hide_knots="false" />
    <inkscape:path-effect
       effect="fillet_chamfer"
       id="path-effect18"
       is_visible="true"
       lpeversion="1"
       nodesatellites_param="F,0,0,1,0,0.049999998,0,2 @ F,0,0,1,0,0.049999998,0,2 @ F,0,0,1,0,0.049999998,0,2 @ F,0,0,1,0,0.049999998,0,2"
       radius="0.05"
       unit="mm"
       method="auto"
       mode="F"
       chamfer_steps="2"
       flexible="false"
       use_knot_distance="true"
       apply_no_radius="true"
       apply_with_radius="true"
       only_selected="false"
       hide_knots="false" />
  </defs>
  <g
     inkscape:label="Layer 1"
     inkscape:groupmode="layer"
     id="layer1">
    <path
       id="rect1"
       style="display:inline;fill:#e0e0e0;fill-opacity:1;stroke-width:0.163713"
       inkscape:label="rect1"
       d="M 1.3223999 2.390035 C 1.2752593 2.3887011 1.2278943 2.3936377 1.1937256 2.4060547 C 0.89835644 2.5133927 0.61691472 2.9436753 0.36328532 3.1894694 C 0.31126056 3.239887 0.26458333 3.334998 0.26458333 3.4080607 L 0.26458333 3.852478 A 0.13229166 0.13229166 0 0 0 0.396875 3.9847697 L 2.644283 3.9847697 C 2.6442874 3.8879145 2.649762 3.7364809 2.6799398 3.6586914 C 2.7099108 3.5770424 2.9104167 3.4085775 2.9104167 3.3517334 C 2.9104167 3.3177279 2.8446574 3.2338865 2.8442708 3.2333944 C 2.8199466 3.2285527 2.7958187 3.2233682 2.7714071 3.2168579 C 2.7008581 3.1980432 2.5914838 3.1513092 2.5290446 3.113505 C 2.2465539 2.9424696 1.7363253 2.5297013 1.4495239 2.4127726 C 1.4161152 2.3991519 1.3695405 2.3913689 1.3223999 2.390035 z M 3.7506755 3.2230591 C 3.5193593 3.2159227 3.2084554 3.2945822 2.8845785 3.2411458 C 2.8845785 3.2411458 2.9391396 3.2912718 2.9610596 3.3398478 C 2.9765626 3.3770548 2.8536822 3.5780494 2.8628743 3.6411214 C 2.8384842 3.8127921 2.8588245 3.9195439 2.8881958 3.9847697 L 3.8364583 3.9847697 A 0.13229166 0.13229166 0 0 0 3.96875 3.852478 L 3.96875 3.4080607 C 3.96875 3.334998 3.9162987 3.2447853 3.8447266 3.2323608 C 3.8151216 3.2272216 3.7837206 3.2240786 3.7506755 3.2230591 z " />
    <rect
       style="fill:none;fill-opacity:1;stroke:#e0e0e0;stroke-width:0.249666;stroke-linejoin:round;stroke-dasharray:none;stroke-opacity:1"
       id="rect2"
       width="3.4508295"
       height="1.0393153"
       x="0.39125186"
       y="0.42151615" />
    <path
       id="rect3"
       style="fill:#e0e0e0;fill-opacity:1;stroke:none;stroke-width:1.42834;stroke-linejoin:round;stroke-dasharray:none;stroke-opacity:1"
       d="M 0.66869303 0.64647217 A 0.049999998 0.049999998 0 0 0 0.61856689 0.69659831 L 0.61856689 1.1854574 A 0.049999998 0.049999998 0 0 0 0.66869303 1.2355835 L 2.2019328 1.2355835 A 0.049999998 0.049999998 0 0 0 2.2520589 1.1854574 L 2.2520589 0.69659831 A 0.049999998 0.049999998 0 0 0 2.2019328 0.64647217 L 0.66869303 0.64647217 z M 1.6169556 0.72347005 L 2.1822957 0.72347005 L 2.1822957 0.79375 L 1.6169556 0.79375 L 1.6169556 0.72347005 z M 1.4107666 0.90588786 L 2.1822957 0.90588786 L 2.1822957 0.97616781 L 1.4107666 0.97616781 L 1.4107666 0.90588786 z M 1.6169556 1.091923 L 2.1822957 1.091923 L 2.1822957 1.162203 L 1.6169556 1.162203 L 1.6169556 1.091923 z " />
    <path
       id="rect17"
       style="fill:#e0e0e0;stroke-width:1.258;stroke-linejoin:round"
       d="M 2.9230077 1.9069266 A 0.05404361 0.046258934 22.413717 0 0 2.9273926 1.9737136 L 2.977088 2.0182382 A 0.34981889 0.31342021 0 0 1 3.012898 1.9802613 A 0.34981889 0.31342021 0 0 1 3.0552852 1.9481774 L 3.0055898 1.9036528 A 0.05404361 0.046258934 22.413717 0 0 2.9310467 1.8997241 L 2.9230077 1.9069266 z M 2.8009616 2.1694909 A 0.055806688 0.044797495 0 0 0 2.7892685 2.1969914 L 2.7892685 2.206813 A 0.055806688 0.044797495 0 0 0 2.8451759 2.251665 L 2.9146033 2.251665 A 0.34981889 0.31342021 0 0 1 2.9146033 2.1521394 L 2.8451759 2.1521394 A 0.055806688 0.044797495 0 0 0 2.8009616 2.1694909 z M 3.2193532 1.7946329 A 0.049999998 0.049999998 54.217474 0 0 3.2047369 1.8299907 L 3.2047369 1.8921942 A 0.34981889 0.31342021 0 0 1 3.3158208 1.8921942 L 3.3158208 1.8299907 A 0.049999998 0.049999998 54.217474 0 0 3.26576 1.7799005 L 3.2547978 1.7799005 A 0.049999998 0.049999998 54.217474 0 0 3.2193532 1.7946329 z M 2.9270272 2.4297635 A 0.046258934 0.05404361 67.586283 0 0 2.9230077 2.4968778 L 2.9310467 2.5040803 A 0.046258934 0.05404361 67.586283 0 0 3.0055898 2.5001516 L 3.0552852 2.455627 A 0.34981889 0.31342021 0 0 1 3.012898 2.4235431 A 0.34981889 0.31342021 0 0 1 2.9767226 2.3852389 L 2.9270272 2.4297635 z M 3.4649071 1.94785 A 0.34981889 0.31342021 0 0 1 3.5076598 1.9802613 A 0.34981889 0.31342021 0 0 1 3.5434697 2.0182382 L 3.5931652 1.9737136 A 0.046258934 0.05404361 67.586283 0 0 3.59755 1.9069266 L 3.5895111 1.8997241 A 0.046258934 0.05404361 67.586283 0 0 3.5146025 1.9033254 L 3.4649071 1.94785 z M 3.2047369 2.5116102 L 3.2047369 2.5738137 A 0.049999998 0.049999998 54.217474 0 0 3.2547978 2.6239039 L 3.26576 2.6239039 A 0.049999998 0.049999998 54.217474 0 0 3.3158208 2.5738137 L 3.3158208 2.5116102 A 0.34981889 0.31342021 0 0 1 3.2047369 2.5116102 z M 3.6059544 2.1521394 A 0.34981889 0.31342021 0 0 1 3.6059544 2.251665 L 3.6753819 2.251665 A 0.055806688 0.044797495 0 0 0 3.7312892 2.206813 L 3.7312892 2.1969914 A 0.055806688 0.044797495 0 0 0 3.6753819 2.1521394 L 3.6059544 2.1521394 z M 3.4652725 2.455627 L 3.5149679 2.5001516 A 0.05404361 0.046258934 22.413717 0 0 3.5895111 2.5040803 L 3.59755 2.4968778 A 0.05404361 0.046258934 22.413717 0 0 3.5931652 2.4300909 L 3.5434697 2.3855662 A 0.34981889 0.31342021 0 0 1 3.5076598 2.4235431 A 0.34981889 0.31342021 0 0 1 3.4652725 2.455627 z "
       transform="matrix(0.70710678,0.70710678,-0.78922578,0.78922578,2.6926988,-1.8412305)" />
    <circle
       style="fill:#e0e0e0;stroke-width:1.34476;stroke-linejoin:round;fill-opacity:1"
       id="path24"
       cx="3.2602661"
       cy="2.2019327"
       r="0.28835449" />
  </g>
</svg>
