<?xml version="1.0" encoding="UTF-8" standalone="no"?>
<!-- Created with Inkscape (http://www.inkscape.org/) -->

<svg
   width="16"
   height="16"
   viewBox="0 0 4.2333332 4.2333333"
   version="1.1"
   id="svg1"
   inkscape:version="1.4.2 (ebf0e940d0, 2025-05-08)"
   sodipodi:docname="icon.svg"
   xmlns:inkscape="http://www.inkscape.org/namespaces/inkscape"
   xmlns:sodipodi="http://sodipodi.sourceforge.net/DTD/sodipodi-0.dtd"
   xmlns="http://www.w3.org/2000/svg"
   xmlns:svg="http://www.w3.org/2000/svg">
  <sodipodi:namedview
     id="namedview1"
     pagecolor="#505050"
     bordercolor="#eeeeee"
     borderopacity="1"
     inkscape:showpageshadow="0"
     inkscape:pageopacity="0"
     inkscape:pagecheckerboard="0"
     inkscape:deskcolor="#505050"
     inkscape:document-units="mm"
     showgrid="true"
     inkscape:zoom="24.807173"
     inkscape:cx="0.62481928"
     inkscape:cy="13.584781"
     inkscape:window-width="1707"
     inkscape:window-height="902"
     inkscape:window-x="0"
     inkscape:window-y="0"
     inkscape:window-maximized="1"
     inkscape:current-layer="layer1">
    <inkscape:grid
       id="grid1"
       units="px"
       originx="0"
       originy="0"
       spacingx="0.26458333"
       spacingy="0.26458333"
       empcolor="#0099e5"
       empopacity="0.30196078"
       color="#0099e5"
       opacity="0.14901961"
       empspacing="5"
       enabled="true"
       visible="true" />
  </sodipodi:namedview>
  <defs
     id="defs1">
    <inkscape:path-effect
       effect="fillet_chamfer"
       id="path-effect26"
       is_visible="true"
       lpeversion="1"
       nodesatellites_param="F,0,0,1,0,0.13229166,0,1 @ F,0,0,1,0,0.13229166,0,1 @ F,0,0,1,0,0.13229166,0,1 @ F,0,0,1,0,0.13229166,0,1 @ F,0,0,1,0,0.13229166,0,1 @ F,0,0,1,0,0.13229166,0,1"
       radius="0.5"
       unit="px"
       method="auto"
       mode="F"
       chamfer_steps="1"
       flexible="false"
       use_knot_distance="true"
       apply_no_radius="true"
       apply_with_radius="true"
       only_selected="false"
       hide_knots="false" />
    <inkscape:path-effect
       effect="fillet_chamfer"
       id="path-effect25"
       is_visible="true"
       lpeversion="1"
       nodesatellites_param="F,0,0,1,0,0.049999998,0,1 @ F,0,0,1,0,0.049999998,0,1 @ F,0,0,1,0,0.049999998,0,1 @ F,0,0,1,0,0.049999998,0,1 | F,0,0,1,0,0.049999998,0,1 @ F,0,0,1,0,0.049999998,0,1 @ F,0,0,1,0,0.049999998,0,1 @ F,0,0,1,0,0.049999998,0,1 | F,0,0,1,0,0.049999998,0,1 @ F,0,0,1,0,0.049999998,0,1 @ F,0,0,1,0,0.049999998,0,1 @ F,0,0,1,0,0.049999998,0,1 | F,0,0,1,0,0.049999998,0,1 @ F,0,0,1,0,0.049999998,0,1 @ F,0,0,1,0,0.049999998,0,1 @ F,0,0,1,0,0.049999998,0,1"
       radius="0.03"
       unit="mm"
       method="auto"
       mode="F"
       chamfer_steps="1"
       flexible="false"
       use_knot_distance="true"
       apply_no_radius="true"
       apply_with_radius="true"
       only_selected="false"
       hide_knots="false" />
    <inkscape:path-effect
       effect="fillet_chamfer"
       id="path-effect24"
       is_visible="true"
       lpeversion="1"
       nodesatellites_param="F,0,0,1,0,0.049999998,0,2 @ F,0,0,1,0,0.049999998,0,2 @ F,0,0,1,0,0.049999998,0,2 @ F,0,0,1,0,0.049999998,0,2"
       radius="0.05"
       unit="mm"
       method="auto"
       mode="F"
       chamfer_steps="2"
       flexible="false"
       use_knot_distance="true"
       apply_no_radius="true"
       apply_with_radius="true"
       only_selected="false"
       hide_knots="false" />
    <inkscape:path-effect
       effect="fillet_chamfer"
       id="path-effect22"
       is_visible="true"
       lpeversion="1"
       nodesatellites_param="F,0,0,1,0,0.049999998,0,2 @ F,0,0,1,0,0.049999998,0,2 @ F,0,0,1,0,0.049999998,0,2 @ F,0,0,1,0,0.049999998,0,2"
       radius="0.05"
       unit="mm"
       method="auto"
       mode="F"
       chamfer_steps="2"
       flexible="false"
       use_knot_distance="true"
       apply_no_radius="true"
       apply_with_radius="true"
       only_selected="false"
       hide_knots="false" />
    <inkscape:path-effect
       effect="fillet_chamfer"
       id="path-effect20"
       is_visible="true"
       lpeversion="1"
       nodesatellites_param="F,0,0,1,0,0.049999998,0,2 @ F,0,0,1,0,0.049999998,0,2 @ F,0,0,1,0,0.049999998,0,2 @ F,0,0,1,0,0.049999998,0,2"
       radius="0.05"
       unit="mm"
       method="auto"
       mode="F"
       chamfer_steps="2"
       flexible="false"
       use_knot_distance="true"
       apply_no_radius="true"
       apply_with_radius="true"
       only_selected="false"
       hide_knots="false" />
    <inkscape:path-effect
       effect="fillet_chamfer"
       id="path-effect18"
       is_visible="true"
       lpeversion="1"
       nodesatellites_param="F,0,0,1,0,0.049999998,0,2 @ F,0,0,1,0,0.049999998,0,2 @ F,0,0,1,0,0.049999998,0,2 @ F,0,0,1,0,0.049999998,0,2"
       radius="0.05"
       unit="mm"
       method="auto"
       mode="F"
       chamfer_steps="2"
       flexible="false"
       use_knot_distance="true"
       apply_no_radius="true"
       apply_with_radius="true"
       only_selected="false"
       hide_knots="false" />
  </defs>
  <g
     inkscape:label="Layer 1"
     inkscape:groupmode="layer"
     id="layer1">
    <path
       id="rect1"
       style="display:inline;fill:#e0e0e0;fill-opacity:1;stroke-width:0.163713"
       inkscape:label="rect1"
       d="M 1.193618,2.4060363 C 0.89824885,2.5133743 0.61694865,2.9434915 0.36331925,3.1892856 0.31129449,3.2397032 0.26458334,3.3348766 0.26458334,3.4079393 V 3.8524502 A 0.13229166,0.13229166 45 0 0 0.396875,3.9847419 l 3.4395833,0 A 0.13229166,0.13229166 135 0 0 3.96875,3.8524502 V 3.4079393 C 3.96875,3.3348766 3.916208,3.2445281 3.8446358,3.2321037 3.5837409,3.186814 3.1817333,3.3260785 2.7713146,3.2166241 2.7007656,3.1978095 2.5913329,3.1512223 2.5288937,3.1134182 2.2464031,2.9423827 1.7365592,2.5295044 1.4497578,2.4125757 1.3829404,2.3853343 1.2619554,2.3812023 1.193618,2.4060363 Z"
       sodipodi:nodetypes="sccccss"
       inkscape:path-effect="#path-effect26"
       inkscape:original-d="M 1.3229166,2.3812499 C 0.94098797,2.3852066 0.57877605,3.035062 0.26458334,3.2756476 V 3.9847419 H 3.96875 V 3.2756476 C 3.7041666,3.1173628 3.1708343,3.3853707 2.6458333,3.1749999 2.3821633,3.0693459 1.5842363,2.3785428 1.3229166,2.3812499 Z" />
    <rect
       style="fill:none;fill-opacity:1;stroke:#e0e0e0;stroke-width:0.249666;stroke-linejoin:round;stroke-dasharray:none;stroke-opacity:1"
       id="rect2"
       width="3.4508295"
       height="1.0393153"
       x="0.39125186"
       y="0.42151615" />
    <path
       id="rect3"
       style="fill:#e0e0e0;fill-opacity:1;stroke:none;stroke-width:1.42834;stroke-linejoin:round;stroke-dasharray:none;stroke-opacity:1"
       d="m 0.61856689,0.69647217 0,0.48911133 a 0.05,0.05 45 0 0 0.05,0.05 H 2.2020589 a 0.05,0.05 135 0 0 0.05,-0.05 V 0.69647217 a 0.05,0.05 45 0 0 -0.05,-0.05 H 0.66856689 a 0.05,0.05 135 0 0 -0.05,0.05 z m 0.75434981,0.0156291 h 0.69375 a 0.05,0.05 45 0 1 0.05,0.05 0.04184281,0.04184281 147.66723 0 1 -0.05,0.0316487 h -0.69375 a 0.05,0.05 45 0 1 -0.05,-0.05 0.04184281,0.04184281 147.66723 0 1 0.05,-0.0316487 z M 1.6375,0.90020345 l 0.4291667,0 a 0.05,0.05 45 0 1 0.05,0.05 0.04184284,0.04184284 147.66717 0 1 -0.05,0.0316488 l -0.4291667,0 a 0.05,0.05 45 0 1 -0.05,-0.05 0.04184284,0.04184284 147.66717 0 1 0.05,-0.0316488 z M 1.9718465,1.0888224 h 0.09482 a 0.05,0.05 45 0 1 0.05,0.05 0.04164854,0.04164854 148.09195 0 1 -0.05,0.031132 h -0.09482 a 0.05,0.05 45 0 1 -0.05,-0.05 0.04164854,0.04164854 148.09195 0 1 0.05,-0.031132 z"
       inkscape:path-effect="#path-effect25"
       inkscape:original-d="M 0.61856689,0.64647217 V 1.2355835 H 2.2520589 V 0.64647217 Z m 0.70434981,0.0656291 h 0.79375 V 0.79375 h -0.79375 z M 1.5875,0.90020345 h 0.5291667 v 0.0816488 H 1.5875 Z M 1.9218465,1.0888224 h 0.1948202 v 0.081132 H 1.9218465 Z" />
    <path
       id="rect17"
       style="fill:#e0e0e0;stroke-width:1.258;stroke-linejoin:round"
       d="M 2.9230077 1.9069266 A 0.05404361 0.046258934 22.413717 0 0 2.9273926 1.9737136 L 2.977088 2.0182382 A 0.34981889 0.31342021 0 0 1 3.012898 1.9802613 A 0.34981889 0.31342021 0 0 1 3.0552852 1.9481774 L 3.0055898 1.9036528 A 0.05404361 0.046258934 22.413717 0 0 2.9310467 1.8997241 L 2.9230077 1.9069266 z M 2.8009616 2.1694909 A 0.055806688 0.044797495 0 0 0 2.7892685 2.1969914 L 2.7892685 2.206813 A 0.055806688 0.044797495 0 0 0 2.8451759 2.251665 L 2.9146033 2.251665 A 0.34981889 0.31342021 0 0 1 2.9146033 2.1521394 L 2.8451759 2.1521394 A 0.055806688 0.044797495 0 0 0 2.8009616 2.1694909 z M 3.2193532 1.7946329 A 0.049999998 0.049999998 54.217474 0 0 3.2047369 1.8299907 L 3.2047369 1.8921942 A 0.34981889 0.31342021 0 0 1 3.3158208 1.8921942 L 3.3158208 1.8299907 A 0.049999998 0.049999998 54.217474 0 0 3.26576 1.7799005 L 3.2547978 1.7799005 A 0.049999998 0.049999998 54.217474 0 0 3.2193532 1.7946329 z M 2.9270272 2.4297635 A 0.046258934 0.05404361 67.586283 0 0 2.9230077 2.4968778 L 2.9310467 2.5040803 A 0.046258934 0.05404361 67.586283 0 0 3.0055898 2.5001516 L 3.0552852 2.455627 A 0.34981889 0.31342021 0 0 1 3.012898 2.4235431 A 0.34981889 0.31342021 0 0 1 2.9767226 2.3852389 L 2.9270272 2.4297635 z M 3.4649071 1.94785 A 0.34981889 0.31342021 0 0 1 3.5076598 1.9802613 A 0.34981889 0.31342021 0 0 1 3.5434697 2.0182382 L 3.5931652 1.9737136 A 0.046258934 0.05404361 67.586283 0 0 3.59755 1.9069266 L 3.5895111 1.8997241 A 0.046258934 0.05404361 67.586283 0 0 3.5146025 1.9033254 L 3.4649071 1.94785 z M 3.2047369 2.5116102 L 3.2047369 2.5738137 A 0.049999998 0.049999998 54.217474 0 0 3.2547978 2.6239039 L 3.26576 2.6239039 A 0.049999998 0.049999998 54.217474 0 0 3.3158208 2.5738137 L 3.3158208 2.5116102 A 0.34981889 0.31342021 0 0 1 3.2047369 2.5116102 z M 3.6059544 2.1521394 A 0.34981889 0.31342021 0 0 1 3.6059544 2.251665 L 3.6753819 2.251665 A 0.055806688 0.044797495 0 0 0 3.7312892 2.206813 L 3.7312892 2.1969914 A 0.055806688 0.044797495 0 0 0 3.6753819 2.1521394 L 3.6059544 2.1521394 z M 3.4652725 2.455627 L 3.5149679 2.5001516 A 0.05404361 0.046258934 22.413717 0 0 3.5895111 2.5040803 L 3.59755 2.4968778 A 0.05404361 0.046258934 22.413717 0 0 3.5931652 2.4300909 L 3.5434697 2.3855662 A 0.34981889 0.31342021 0 0 1 3.5076598 2.4235431 A 0.34981889 0.31342021 0 0 1 3.4652725 2.455627 z "
       transform="matrix(0.70710678,0.70710678,-0.78922578,0.78922578,2.6926988,-1.8412305)" />
    <circle
       style="fill:#e0e0e0;stroke-width:1.34476;stroke-linejoin:round;fill-opacity:1"
       id="path24"
       cx="3.2602661"
       cy="2.2019327"
       r="0.28835449" />
  </g>
</svg>
